<mxfile host="Electron" agent="Mozilla/5.0 (Windows NT 10.0; Win64; x64) AppleWebKit/537.36 (KHTML, like Gecko) draw.io/24.7.5 Chrome/126.0.6478.183 Electron/31.3.0 Safari/537.36" version="24.7.5">
  <diagram name="ページ1" id="LE8fIzdrHe0wcv1LTvfw">
    <mxGraphModel dx="2333" dy="1380" grid="1" gridSize="10" guides="1" tooltips="1" connect="1" arrows="1" fold="1" page="1" pageScale="1" pageWidth="1600" pageHeight="1200" math="0" shadow="0">
      <root>
        <mxCell id="0" />
        <mxCell id="cFaB45KztUIKXS-_cTrr-4" value="背景" style="locked=1;" parent="0" visible="0" />
        <mxCell id="cFaB45KztUIKXS-_cTrr-5" value="" style="rounded=0;whiteSpace=wrap;html=1;strokeWidth=3;" parent="cFaB45KztUIKXS-_cTrr-4" vertex="1">
          <mxGeometry x="1" y="1" width="1595" height="1180" as="geometry" />
        </mxCell>
        <mxCell id="cFaB45KztUIKXS-_cTrr-6" value="" style="rounded=0;whiteSpace=wrap;html=1;fillColor=#B3B3B3;fontColor=#333333;strokeColor=#666666;" parent="cFaB45KztUIKXS-_cTrr-4" vertex="1">
          <mxGeometry width="1595" height="60" as="geometry" />
        </mxCell>
        <mxCell id="cFaB45KztUIKXS-_cTrr-7" value="&lt;font style=&quot;font-size: 48px;&quot;&gt;×&lt;/font&gt;" style="rounded=0;whiteSpace=wrap;html=1;" parent="cFaB45KztUIKXS-_cTrr-4" vertex="1">
          <mxGeometry x="1550" y="10" width="40" height="40" as="geometry" />
        </mxCell>
        <mxCell id="cFaB45KztUIKXS-_cTrr-8" value="" style="rounded=0;whiteSpace=wrap;html=1;" parent="cFaB45KztUIKXS-_cTrr-4" vertex="1">
          <mxGeometry x="830" y="670" width="120" height="60" as="geometry" />
        </mxCell>
        <mxCell id="cFaB45KztUIKXS-_cTrr-9" value="ウインドウ" style="locked=1;" parent="0" />
        <mxCell id="cFaB45KztUIKXS-_cTrr-10" value="" style="rounded=0;whiteSpace=wrap;html=1;strokeWidth=3;" parent="cFaB45KztUIKXS-_cTrr-9" vertex="1">
          <mxGeometry x="1" y="1" width="1595" height="1179" as="geometry" />
        </mxCell>
        <mxCell id="cFaB45KztUIKXS-_cTrr-11" value="" style="rounded=0;whiteSpace=wrap;html=1;fillColor=#B3B3B3;fontColor=#333333;strokeColor=#666666;" parent="cFaB45KztUIKXS-_cTrr-9" vertex="1">
          <mxGeometry width="1595" height="60" as="geometry" />
        </mxCell>
        <mxCell id="cFaB45KztUIKXS-_cTrr-12" value="&lt;font style=&quot;font-size: 48px;&quot;&gt;×&lt;/font&gt;" style="rounded=0;whiteSpace=wrap;html=1;" parent="cFaB45KztUIKXS-_cTrr-9" vertex="1">
          <mxGeometry x="1550" y="10" width="40" height="40" as="geometry" />
        </mxCell>
        <mxCell id="cFaB45KztUIKXS-_cTrr-14" value="名称未設定レイヤ" style="" parent="0" />
        <mxCell id="-aRjbIlAvJyihVMSlcDC-142" value="&lt;span style=&quot;font-size: 30px;&quot;&gt;保存された書証をダウンロード&lt;/span&gt;" style="rounded=1;whiteSpace=wrap;html=1;fillColor=#FFFFFF;strokeWidth=3;" parent="cFaB45KztUIKXS-_cTrr-14" vertex="1">
          <mxGeometry x="60" y="120" width="580" height="60" as="geometry" />
        </mxCell>
      </root>
    </mxGraphModel>
  </diagram>
</mxfile>
